<svg width="38" height="56" viewBox="0 0 38 56" fill="none" xmlns="http://www.w3.org/2000/svg">
<path d="M3.948 12.4727H18.4488C21.9144 12.4727 24.9696 13.1447 27.6144 14.4887C30.2896 15.8022 32.3568 17.6654 33.816 20.0785C35.3056 22.4916 36.0504 25.3018 36.0504 28.5091C36.0504 31.7164 35.3056 34.5265 33.816 36.9396C32.3568 39.3527 30.2896 41.2313 27.6144 42.5753C24.9696 43.8887 21.9144 44.5454 18.4488 44.5454H3.948V12.4727ZM18.084 38.4516C21.276 38.4516 23.8144 37.5658 25.6992 35.7942C27.6144 33.992 28.572 31.5636 28.572 28.5091C28.572 25.4545 27.6144 23.0414 25.6992 21.2698C23.8144 19.4676 21.276 18.5665 18.084 18.5665H11.3352V38.4516H18.084Z" fill="black"/>
<path d="M19.6333 33.0909C22.0817 33.0909 24.0666 31.0965 24.0666 28.6364C24.0666 26.1762 22.0817 24.1818 19.6333 24.1818C17.1848 24.1818 15.2 26.1762 15.2 28.6364C15.2 31.0965 17.1848 33.0909 19.6333 33.0909Z" fill="#4C45C2"/>
</svg>
